# xmcd
#
# Track frame offsets: 
#        150
#        29989
#        50081
#        71572
#        89607
#        109159
#        128473
#        154483
#        171919
#        187234
#        221365
#
# Disc length: 3399 seconds
#
# Revision: 2
# Processed by: cddbd v1.5.2PL0 Copyright (c) Steve Scherf et al.
# Submitted via: ExactAudioCopy v1.0b1
#
DISCID=aa0d450b
DTITLE=Heatwave - Too Hot To Handle - Central Heating Disc 2
DYEAR=2010
DGENRE=Funk
TTITLE0=Put The Word Out
TTITLE1=Send Out For Sunshine
TTITLE2=Central Heating
TTITLE3=Happiness Togetherness
TTITLE4=The Groove Line
TTITLE5=Mind Blowing Decisions
TTITLE6=The Star Of A Story
TTITLE7=Party Poops
TTITLE8=Leavin' For A Dream
TTITLE9=Mind Blowing Decisions (extended remix version)
TTITLE10=The Groove Line (extended version)
EXTD=
EXTT0=
EXTT1=
EXTT2=
EXTT3=
EXTT4=
EXTT5=
EXTT6=
EXTT7=
EXTT8=
EXTT9=
EXTT10=
PLAYORDER=
